<svg xmlns="http://www.w3.org/2000/svg" xml:space="preserve" style="fill-rule:evenodd;clip-rule:evenodd" viewBox="69.22 10.02 575.78 680.14"><path d="M69.221 510.889c0-4.716-.088-16.002 18.779-5.065l129 66.259c7.153 3.132 15.465 5.847 30 6h213c16.07 0 32.12-1.21 38-7l130-67.466c17.016-8.585 16.931 2.08 16.999 7.272H645v89.215c0 4.886-1.092 9.51-8.346 13.227l-138.311 70.93c-7.255 3.711-18.267 5.873-29.886 5.87l-221.886.021c-11.624.001-22.636-2.166-29.886-5.881L78.323 613.352c-.774-.4-1.499-.815-2.173-1.244-5.617-3.542-6.929-7.883-6.929-11.983v-89.236Z" style="fill:#326ce5;--darkreader-inline-fill:#4292e7"/><path d="M69.221 300.52c0-4.716-.088-16.002 18.779-5.066l129 66.26c7.153 3.132 15.465 5.847 30 6h213c16.07 0 32.12-1.21 38-7l130-67.467c17.016-8.585 16.931 2.08 16.999 7.273H645v137.145c0 4.887-1.092 9.511-8.346 13.227l-138.311 70.93c-7.255 3.711-18.267 5.874-29.886 5.871l-221.886.021c-11.624.001-22.636-2.166-29.886-5.881l-138.362-70.92c-.774-.399-1.499-.814-2.173-1.243-5.617-3.542-6.929-7.883-6.929-11.984V300.52Z" style="fill:#326ce5;--darkreader-inline-fill:#4292e7"/><path d="M69.221 153.517c0-4.716 2.976-7.885 5.279-12l45.065-79.974c2.591-4.634 10.223-8.541 20.711-10.603l200.169-39.375c4.592-.903 9.58-1.422 14.67-1.528 6.402-.133 12.784.392 18.56 1.528L573.87 50.919c10.488 2.062 18.12 5.969 20.711 10.603L640 140.017c2.555 4.569 4.931 8.307 4.999 13.5H645v76.451c0 4.887-1.092 9.511-8.346 13.227l-138.311 70.93c-7.255 3.711-18.267 5.874-29.886 5.871l-221.886.021c-11.624.001-22.636-2.166-29.886-5.881l-138.362-70.92c-.774-.399-1.499-.814-2.173-1.243-5.617-3.542-6.929-7.883-6.929-11.984v-76.472Z" style="fill:#326ce5;--darkreader-inline-fill:#4292e7"/><path d="M357.098 38.827c-6.617 0-11.982 2.347-11.981 5.242 0 .045.023.087.026.131-.01.394-.058.868-.026 1.21.158 1.67 1.082 2.948 1.638 4.486 1.008 3.293 1.853 6.022 1.332 8.559-.507.957-2.297 1.832-3.892 2.44l-.281 1.996c-7.19.234-14.429.664-21.658 1.31-31.11 2.782-57.894 9.092-78.286 17.612-1.324-.355-3.639-1.009-4.327-1.21-2.139.114-4.301.374-7.117-.272-5.362-1.421-10.245-3.383-16.154-5.746-2.707-1.131-4.668-2.207-7.885-3.297-.73-.247-1.845-.582-2.662-.836-2.515-.79-5.481-1.202-8.346-1.24-3.683-.05-7.229.517-9.549 1.663-4.125 2.037-2.804 5.151 2.944 6.956.059.018.121.032.179.05.79.253 1.758.576 2.484.787 3.413.992 6.531 1.5 9.933 2.288 7.165 1.743 13.106 3.188 17.818 4.93 1.84.772 2.161 2.133 2.406 2.722l3.84 1.351c-20.557 12.182-30.071 27.23-24.448 42.562l-5.018.575c-1.322.672-3.191 1.73-5.146 2.046-6.164.765-13.102 1.046-21.478 1.391-3.933.129-7.326.052-11.495.363-.918.069-2.196.2-3.2.293-.035.003-.068.007-.103.01-.054.005-.126.015-.179.02-7.061.672-11.598 3.228-10.138 5.746 1.461 2.519 8.359 4.051 15.463 3.448.051-.005.126-.005.179-.01.081-.007.151-.023.231-.03.99-.086 2.231-.181 3.097-.273 4.099-.432 7.068-1.067 10.753-1.623 7.927-1.119 14.493-2.055 20.89-2.419 2.671-.082 5.486.649 6.886.958l5.223-.353c12.018 14.672 37.203 26.532 69.095 33.973l-2.176 2.057c.784.798 1.65 1.879 1.065 2.667-2.325 2.375-6.308 4.882-10.844 7.676-2.196 1.291-4.444 2.293-6.426 3.77-.474.354-1.078.897-1.536 1.271-3.079 2.594-.821 5.582 5.095 6.704 5.952 1.128 13.34-.062 16.537-2.662.005-.004.021-.006.026-.01.003-.003-.003-.007 0-.01.455-.369 1.101-.853 1.485-1.2 1.697-1.531 2.262-2.843 3.456-4.324 3.17-3.136 4.912-6.426 9.275-8.476 1.195-.562 3.144-.778 5.163-.991l2.714-1.935c27.803 4.202 58.923 5.33 90.011 2.55 7.092-.634 13.939-1.454 20.557-2.439.763.532 2.18 1.556 2.56 1.814 2.053.263 4.294.399 6.119 1.462 3.265 2.197 5.498 4.795 8.218 7.934 1.194 1.481 1.784 2.793 3.481 4.325.387.349 1.029.84 1.485 1.209 3.191 2.609 10.603 3.803 16.564 2.672 5.914-1.122 8.175-4.11 5.094-6.704-.458-.374-1.087-.917-1.561-1.27-1.982-1.478-4.23-2.47-6.426-3.76-4.536-2.795-8.299-5.116-10.624-7.491-.973-1.225.164-1.986.921-2.782-.453-.205-1.424-1.362-1.997-1.905 33.144-7.707 57.59-20.008 69.07-34.216 1.551.096 4.245.284 5.121.353 1.801-.468 3.458-1.079 6.707-.978 6.397.364 12.962 1.3 20.89 2.42 3.685.555 6.653 1.201 10.752 1.633.866.091 2.107.176 3.098.262.079.007.15.023.23.03.054.005.128.005.179.01 7.105.602 14.004-.929 15.463-3.448 1.459-2.518-3.076-5.075-10.138-5.746-1.027-.092-2.484-.248-3.482-.323-4.169-.31-7.562-.234-11.494-.362-8.376-.346-15.314-.627-21.479-1.392-2.513-.384-4.302-1.561-5.171-2.046l-4.839-.555c2.509-7.146 1.833-14.585-2.509-22.027-4.381-7.511-12.124-14.381-22.451-20.434 1.241-.445 3.585-1.262 4.25-1.502.194-.847.027-1.735 2.252-2.672 4.712-1.742 10.653-3.187 17.818-4.93 3.401-.788 6.545-1.295 9.959-2.288.772-.224 1.826-.58 2.637-.837 5.747-1.805 7.07-4.919 2.944-6.956-4.126-2.037-12.122-2.229-17.869-.423-.818.255-1.928.588-2.663.837-3.216 1.089-5.203 2.166-7.91 3.296-5.909 2.363-10.793 4.335-16.154 5.756-2.324.533-5.726.349-7.271.313l-4.557 1.28c-25.984-10.729-61.363-17.589-99.457-18.922-.107-.629-.246-1.765-.282-2.107-1.559-.588-3.443-1.089-3.917-2.359-.521-2.537.349-5.266 1.357-8.559.556-1.538 1.481-2.816 1.639-4.486.035-.38-.022-.93-.026-1.341-.001-2.895-5.364-5.242-11.981-5.242Zm-15.002 36.595-3.558 24.749-.256.05c-.239 2.214-4.866 3.982-10.548 3.982-2.327 0-4.475-.294-6.221-.796l-.102.02-51.534-14.386c15.839-6.133 36.097-10.665 59.444-12.752 4.265-.382 8.528-.665 12.775-.867Zm30.029 0c27.259 1.32 52.467 6.18 71.784 13.629l-51.201 14.295-.179-.03c-4.545 1.307-10.948.983-14.49-.766-1.451-.717-2.212-1.559-2.304-2.409l-.051-.011-3.559-24.708ZM251.189 98.286l47.054 16.573-.052.101c4.247 1.454 4.874 3.977 1.332 5.726-1.451.716-3.394 1.197-5.479 1.421l-.051.081-60.315 6.855c-3.07-11.054 3.546-21.799 17.511-30.757Zm211.485.01c6.991 4.462 12.286 9.446 15.437 14.849 3.114 5.339 3.896 10.667 2.612 15.817l-60.622-6.875-.052-.101c-5.428-.584-8.764-2.758-7.5-4.939.517-.894 1.722-1.65 3.353-2.208l-.025-.051 46.797-16.492Zm-115.227 17.843h19.277l11.981 5.898-4.301 7.359-17.306 3.276-17.357-3.286-4.301-7.359 12.007-5.888Zm61.799 20.183c.819-.017 1.635.013 2.432.07l.103-.05 62.388 4.153c-9.131 10.102-26.602 18.853-49.947 24.709l-24.218-23.035.077-.041c-2.225-2.035.002-4.422 5.12-5.393 1.311-.248 2.68-.386 4.045-.413Zm-104.783.101c4.762.026 9.032 1.327 10.138 3.236.518.893.266 1.778-.589 2.56l.18.091-23.962 22.803c-22.404-5.661-40.248-14.137-49.793-24.537l61.85-4.133.103.05c.692-.05 1.393-.074 2.073-.07Zm52.251 9.99c1.658-.024 3.341.11 4.941.413 2.097.398 3.716 1.024 4.736 1.775h.23l30.49 21.694c-3.957.523-8.025.969-12.185 1.341-23.319 2.085-46.563 1.453-67.611-1.371l30.413-21.654h.051c1.825-1.344 5.286-2.145 8.935-2.198Z" style="fill:#fff;fill-rule:nonzero;stroke:#fff;stroke-width:.16px;--darkreader-inline-fill:#e8e6e3;--darkreader-inline-stroke:#e8e6e3"/></svg>